<svg xmlns="http://www.w3.org/2000/svg" version="1.1" xmlns:xlink="http://www.w3.org/1999/xlink" xmlns:svgjs="http://svgjs.dev/svgjs" width="1000" height="1125" viewBox="0 0 1000 1125"><g transform="matrix(1,0,0,1,0,0)"><svg viewBox="0 0 320 360" data-background-color="#ffffff" preserveAspectRatio="xMidYMid meet" height="1125" width="1000" xmlns="http://www.w3.org/2000/svg" xmlns:xlink="http://www.w3.org/1999/xlink"><g id="tight-bounds" transform="matrix(1,0,0,1,0,0)"><svg viewBox="0 0 320 360" height="360" width="320"><g><svg></svg></g><g><svg viewBox="0 0 320 360" height="360" width="320"><g><path xmlns="http://www.w3.org/2000/svg" d="M160 340c88.258 0 160-71.742 160-160 0-88.258-71.742-160-160-160-88.258 0-160 71.742-160 160 0 88.258 71.742 160 160 160zM165.161 329.368v-10.323c72.671-2.684 131.2-61.213 133.884-133.884h10.323c-2.684 78.452-65.755 141.523-144.207 144.207zM165.161 30.632c78.452 2.684 141.523 65.755 144.207 144.207h-10.323c-2.684-72.671-61.213-131.2-133.884-133.884zM289.032 180c0 71.123-57.91 129.032-129.032 129.032-71.123 0-129.032-57.91-129.032-129.032 0-71.123 57.91-129.032 129.032-129.032 71.123 0 129.032 57.91 129.032 129.032zM154.839 30.632v10.323c-72.671 2.684-131.2 61.213-133.884 133.884h-10.323c2.684-78.452 65.755-141.523 144.207-144.207zM20.955 185.161c2.684 72.671 61.213 131.2 133.884 133.884v10.323c-78.452-2.684-141.523-65.755-144.207-144.207z" fill="#ed3b43" fill-rule="nonzero" stroke="none" stroke-width="1" stroke-linecap="butt" stroke-linejoin="miter" stroke-miterlimit="10" stroke-dasharray="" stroke-dashoffset="0" font-family="none" font-weight="none" font-size="none" text-anchor="none" style="mix-blend-mode: normal" data-fill-palette-color="tertiary"></path></g><g transform="matrix(1,0,0,1,64,152.94545454545454)"><svg viewBox="0 0 192 54.1090909090909" height="54.1090909090909" width="192"><g><svg viewBox="0 0 192 54.1090909090909" height="54.1090909090909" width="192"><g><svg viewBox="0 0 192 54.1090909090909" height="54.1090909090909" width="192"><g id="textblocktransform"><svg viewBox="0 0 192 54.1090909090909" height="54.1090909090909" width="192" id="textblock"><g><svg viewBox="0 0 192 54.1090909090909" height="54.1090909090909" width="192"><g transform="matrix(1,0,0,1,0,0)"><svg width="192" viewBox="4 -34.849998474121094 126.49000549316406 35.64999771118164" height="54.1090909090909" data-palette-color="#ed3b43"><path d="M4 0L4-34.1 12.45-34.1Q17.7-34.1 21.5-32.08 25.3-30.05 27.3-26.2 29.3-22.35 29.3-17L29.3-17Q29.3-9 24.85-4.5 20.4 0 12.45 0L12.45 0 4 0ZM7.75-3.4L12.35-3.4Q18.45-3.4 21.9-6.75 25.35-10.1 25.35-17L25.35-17Q25.35-23.95 21.9-27.3 18.45-30.65 12.35-30.65L12.35-30.65 7.75-30.65 7.75-3.4ZM55.25 0L36 0 36-34.1 55.1-34.1 55.1-30.95 39.75-30.95 39.75-19.05 51.75-19.05 51.75-16 39.75-16 39.75-3.1 55.25-3.1 55.25 0ZM77.75-4.2L90.25-34.1 94.45-34.1 94.45 0 90.75 0 90.75-27.25 79.35 0 75.85 0 64.95-27.15 64.95 0 61.2 0 61.2-34.1 65.8-34.1 77.75-4.2ZM115.84 0.8Q111.59 0.8 108.27-1.48 104.94-3.75 103.07-7.8 101.19-11.85 101.19-17L101.19-17Q101.19-22.15 103.07-26.23 104.94-30.3 108.27-32.58 111.59-34.85 115.84-34.85L115.84-34.85Q120.09-34.85 123.42-32.58 126.74-30.3 128.62-26.23 130.49-22.15 130.49-16.95L130.49-16.95Q130.49-11.8 128.62-7.78 126.74-3.75 123.42-1.48 120.09 0.8 115.84 0.8L115.84 0.8ZM115.84-2.65Q118.94-2.65 121.42-4.48 123.89-6.3 125.29-9.58 126.69-12.85 126.69-17L126.69-17Q126.69-21.15 125.29-24.45 123.89-27.75 121.42-29.6 118.94-31.45 115.84-31.45L115.84-31.45Q112.74-31.45 110.27-29.6 107.79-27.75 106.39-24.45 104.99-21.15 104.99-17L104.99-17Q104.99-12.85 106.39-9.58 107.79-6.3 110.27-4.48 112.74-2.65 115.84-2.65L115.84-2.65Z" opacity="1" transform="matrix(1,0,0,1,0,0)" fill="#ed3b43" class="wordmark-text-0" data-fill-palette-color="primary" id="text-0"></path></svg></g></svg></g></svg></g></svg></g><g></g></svg></g></svg></g></svg></g><defs></defs></svg><rect width="320" height="360" fill="none" stroke="none" visibility="hidden"></rect></g></svg></g></svg>